<?xml version="1.0" encoding="utf-8"?>
<!-- Generator: Adobe Illustrator 26.0.3, SVG Export Plug-In . SVG Version: 6.00 Build 0)  -->
<svg version="1.1" id="レイヤー_1" xmlns="http://www.w3.org/2000/svg" xmlns:xlink="http://www.w3.org/1999/xlink" x="0px"
	 y="0px" viewBox="0 0 24 24" style="enable-background:new 0 0 24 24;" xml:space="preserve">
<style type="text/css">
	.st0{fill:none;}
	.st1{fill:#00AAC9;}
</style>
<path class="st0" d="M0,0h24v24H0V0z"/>
<path class="st1" d="M9.1,4.3c-2.2,0-4,0.2-4,2v4.7c0,1,0.8,1.7,1.7,1.7l-0.7,0.7v0.2h6v-0.2l-0.7-0.7c1,0,1.7-0.8,1.7-1.7V6.3
	C13.1,4.6,11.3,4.3,9.1,4.3z M6.8,11.8c-0.4,0-0.7-0.3-0.7-0.7s0.3-0.7,0.7-0.7c0.4,0,0.7,0.3,0.7,0.7S7.3,11.8,6.8,11.8z M8.6,8.8
	H6.1V6.3h2.5V8.8z M11.3,11.8c-0.4,0-0.7-0.3-0.7-0.7s0.3-0.7,0.7-0.7c0.4,0,0.7,0.3,0.7,0.7S11.8,11.8,11.3,11.8z M12.1,8.8H9.6
	V6.3h2.5V8.8z"/>
<path class="st1" d="M16.9,14.9h-1l-0.4-0.4c1.3-1.5,2-3.4,2-5.5c0-4.7-3.8-8.4-8.4-8.4S0.7,4.4,0.7,9.1s3.8,8.4,8.4,8.4
	c2.1,0,4-0.8,5.5-2l0.4,0.4v1l6.5,6.5l1.9-1.9L16.9,14.9z M9.1,14.9c-3.2,0-5.8-2.6-5.8-5.8s2.6-5.8,5.8-5.8s5.8,2.6,5.8,5.8
	S12.3,14.9,9.1,14.9z"/>
</svg>
